<mxfile host="app.diagrams.net" modified="2024-03-04T06:51:06.261Z" agent="Mozilla/5.0 (Macintosh; Intel Mac OS X 10_15_7) AppleWebKit/605.1.15 (KHTML, like Gecko) Version/17.2.1 Safari/605.1.15" version="24.0.1" etag="efVQ3AjVMPjMZFxp3U8i" type="github">
  <diagram name="第 1 页" id="cora_Gs9n239hBChhliZ">
    <mxGraphModel>
      <root>
        <mxCell id="0" />
        <mxCell id="1" parent="0" />
      </root>
    </mxGraphModel>
  </diagram>
</mxfile>
